<?xml version="1.0" standalone="no"?>
<!DOCTYPE svg PUBLIC "-//W3C//DTD SVG 20010904//EN"
 "http://www.w3.org/TR/2001/REC-SVG-20010904/DTD/svg10.dtd">
<svg version="1.0" xmlns="http://www.w3.org/2000/svg"
 width="128.000000pt" height="128.000000pt" viewBox="0 0 128.000000 128.000000"
 preserveAspectRatio="xMidYMid meet">
<metadata>
Created by potrace 1.10, written by Peter Selinger 2001-2011
</metadata>
<g transform="translate(0.000000,128.000000) scale(0.100000,-0.100000)"
fill="#000000" stroke="none">
<path d="M802 1086 c-66 -82 -138 -221 -175 -338 -19 -60 -22 -78 -12 -82 9
-3 20 18 35 67 41 133 129 285 213 366 34 32 39 61 12 61 -7 0 -40 -33 -73
-74z"/>
<path d="M530 677 c0 -2 9 -25 20 -49 17 -40 25 -46 57 -51 29 -5 45 -1 70 16
41 27 42 37 4 37 -21 0 -30 -6 -34 -21 -3 -12 -10 -18 -15 -15 -6 3 -8 14 -5
24 3 14 -6 23 -39 37 -24 10 -46 20 -50 23 -5 2 -8 2 -8 -1z"/>
<path d="M523 513 c-42 -62 -61 -118 -64 -185 -3 -57 4 -78 24 -78 8 0 11 17
9 53 -3 36 2 67 14 93 9 21 16 43 15 47 -2 12 26 62 44 77 26 22 60 -2 87 -62
21 -44 73 -129 113 -184 16 -23 -4 -28 -28 -7 -40 36 -52 39 -33 7 40 -66 38
-66 90 -48 l46 16 -56 61 c-33 37 -74 99 -101 155 -36 72 -51 92 -67 92 -12 0
-30 3 -41 5 -15 5 -27 -5 -52 -42z"/>
<path d="M923 489 c-18 -18 7 -39 28 -26 14 9 15 13 4 24 -16 16 -18 16 -32 2z"/>
<path d="M851 423 c-1 -13 -12 -30 -26 -39 l-26 -17 23 -11 c12 -6 25 -22 28
-36 6 -24 6 -24 13 7 4 22 13 33 29 36 l23 4 -23 8 c-13 4 -26 20 -31 39 -7
24 -9 26 -10 9z"/>
<path d="M432 393 c-19 -46 -24 -81 -16 -95 5 -8 13 12 20 52 13 73 12 84 -4
43z"/>
<path d="M522 367 c-5 -24 -6 -63 -3 -88 6 -42 8 -44 51 -56 52 -13 110 -16
126 -5 8 5 6 16 -6 35 -17 27 -18 27 -23 6 -5 -19 -10 -21 -48 -15 -76 12 -81
18 -77 97 3 78 -6 90 -20 26z"/>
</g>
</svg>
