<?xml version="1.0" encoding="UTF-8" standalone="no"?>
<svg width="24" height="24" viewBox="0 0 24 24" fill="none" xmlns="http://www.w3.org/2000/svg">
  <path d="M19.36 2.72C19.78 2.3 20.47 2.3 20.89 2.72L21.29 3.12C21.71 3.54 21.71 4.24 21.29 4.66L12.71 13.24C12.29 13.66 11.59 13.66 11.17 13.24L10.77 12.84C10.35 12.42 10.35 11.73 10.77 11.31L19.36 2.72Z" fill="#C5C5C5"/>
  <path d="M19 13.95V16C19 17.1 18.1 18 17 18H9.00003C7.90003 18 7.00003 17.1 7.00003 16V11.31C7.00003 10.4 6.17003 9.86 5.36003 10.25L4.00003 10.93V19C4.00003 20.1 4.90003 21 6.00003 21H17C19.21 21 21 19.21 21 17V14.95C21 14.44 20.55 14.05 20.05 14.11L19.5 14.18C19.22 14.21 19 14.45 19 14.74V13.95Z" fill="#C5C5C5"/>
  <path d="M9.75003 3.35C8.86003 2.71 7.69003 2.92 7.05003 3.81L2.87003 9.89C2.23003 10.78 2.44003 11.95 3.33003 12.59L5.00003 13.74V10.93L6.36003 10.25C7.17003 9.86 8.00003 10.4 8.00003 11.31V14.96L10.49 16.63C11.38 17.27 12.55 17.06 13.19 16.17L19.25 7.5L17.75 6L11.75 14.6C11.11 15.49 9.94003 15.7 9.05003 15.06L8.00003 14.4V11.31C8.00003 9.5 6.34003 8.41 4.72003 9.19L3.36003 9.87L7.55003 3.79C8.19003 2.9 9.36003 2.69 10.25 3.33L12 4.5L13.5 2.5L11.75 1.33C10.86 0.69 9.69003 0.9 9.05003 1.79L7.25003 4.5L8.75003 6L9.75003 3.35Z" fill="#C5C5C5"/>
</svg> 